<?xml version="1.0" encoding="utf-8"?>
<!-- Generator: Adobe Illustrator 17.0.0, SVG Export Plug-In . SVG Version: 6.00 Build 0)  -->
<!DOCTYPE svg PUBLIC "-//W3C//DTD SVG 1.1//EN" "http://www.w3.org/Graphics/SVG/1.1/DTD/svg11.dtd">
<svg version="1.1" xmlns="http://www.w3.org/2000/svg" xmlns:xlink="http://www.w3.org/1999/xlink" x="0px" y="0px" width="300px"
	 height="300px" viewBox="0 0 300 300" enable-background="new 0 0 300 300" xml:space="preserve">
<g id="Layer_9" display="none">
	<circle display="inline" fill="#171717" cx="-321.867" cy="157.5" r="2846.135"/>
</g>
<g id="Layer_3" display="none">
	<circle display="inline" fill="#212121" cx="-218.002" cy="157.5" r="344"/>
</g>
<g id="Layer_4">
</g>
<g id="Layer_12">
</g>
<g id="Layer_5">
</g>
<g id="Layer_7">
</g>
<g id="Layer_10">
</g>
<g id="Layer_8">
	<g>
		<ellipse cx="151.95" cy="273.256" rx="141.311" ry="7.244"/>
		<polygon fill="#7D7D7D" points="26.68,79.805 26.68,197.12 26.68,272.627 278.925,272.627 278.925,197.12 278.925,79.805 		"/>
		<rect x="24.254" y="268.989" fill="#7D7D7D" width="257.096" height="3.638"/>
		<rect x="24.254" y="262.925" fill="#7D7D7D" width="257.096" height="3.638"/>
		<rect x="24.254" y="256.862" fill="#B3B3B3" width="257.096" height="3.638"/>
		<rect x="26.68" y="232.608" fill="#595959" width="86.103" height="2.425"/>
		<rect x="26.68" y="230.182" fill="#B3B3B3" width="86.103" height="2.425"/>
		<rect x="26.68" y="201.077" fill="#595959" width="86.103" height="2.425"/>
		<rect x="26.68" y="198.651" fill="#B3B3B3" width="86.103" height="2.425"/>
		<rect x="26.68" y="266.564" fill="#595959" width="252.245" height="2.425"/>
		<rect x="26.68" y="260.5" fill="#595959" width="252.245" height="2.425"/>
		<g>
			<path fill="none" d="M173.419,102.847h-41.232c-3.335,0-6.064,2.729-6.064,6.064v56.998c0,3.335,2.729,6.064,6.064,6.064h41.232
				c3.335,0,6.064-2.729,6.064-6.064V108.91C179.482,105.575,176.754,102.847,173.419,102.847z"/>
			<g>
				<path fill="none" d="M126.123,108.91v56.998c0,3.335,2.729,6.064,6.064,6.064h41.232c3.335,0,6.064-2.729,6.064-6.064v-51.079
					c-0.596,0.085-1.2,0.145-1.819,0.145c-6.828,0-12.384-5.378-12.703-12.127h-32.774
					C128.851,102.847,126.123,105.575,126.123,108.91z"/>
				<path fill="#595959" d="M125.516,98.602h39.948c1.566-5.259,6.432-9.095,12.199-9.095h-52.147
					c-7.032,0-12.734,5.701-12.734,12.734v154.622h9.095V102.24C121.878,100.234,123.51,98.602,125.516,98.602z"/>
				<path fill="#B3B3B3" d="M192.288,98.602c-1.566-5.259-6.432-9.095-12.199-9.095h-2.425c5.767,0,10.633,3.837,12.199,9.095
					c0.344,1.154,0.534,2.373,0.534,3.638v154.622h2.425V102.24C192.822,100.975,192.631,99.756,192.288,98.602z"/>
				<path fill="none" d="M177.663,114.974c0.619,0,1.223-0.059,1.819-0.145v-5.919c0-3.335-2.729-6.064-6.064-6.064h-8.458
					C165.279,109.596,170.835,114.974,177.663,114.974z"/>
				<path fill="#595959" d="M165.464,98.602h24.399c-1.566-5.259-6.432-9.095-12.199-9.095S167.03,93.344,165.464,98.602z"/>
				<g>
					<path fill="none" d="M173.419,102.847h-8.458h-32.774c-3.335,0-6.064,2.729-6.064,6.064v56.998
						c0,3.335,2.729,6.064,6.064,6.064h41.232c3.335,0,6.064-2.729,6.064-6.064v-51.079v-5.919
						C179.482,105.575,176.754,102.847,173.419,102.847z"/>
					<path fill="#6E6E6E" d="M189.863,98.602h-24.399h-39.948c-2.006,0-3.638,1.632-3.638,3.638v154.622h68.519V102.24
						C190.397,100.975,190.206,99.756,189.863,98.602z M179.482,165.908c0,3.335-2.729,6.064-6.064,6.064h-41.232
						c-3.335,0-6.064-2.729-6.064-6.064V108.91c0-3.335,2.729-6.064,6.064-6.064h32.774h8.458c3.335,0,6.064,2.729,6.064,6.064
						v5.919V165.908z"/>
				</g>
			</g>
			<path fill="#595959" d="M173.419,102.847h-41.232c-3.335,0-6.064,2.729-6.064,6.064v56.998c0,3.335,2.729,6.064,6.064,6.064
				h41.232c3.335,0,6.064-2.729,6.064-6.064V108.91C179.482,105.575,176.754,102.847,173.419,102.847z M177.057,165.908
				c0,2.006-1.632,3.638-3.638,3.638h-41.232c-2.006,0-3.638-1.632-3.638-3.638V108.91c0-2.006,1.632-3.638,3.638-3.638h41.232
				c2.006,0,3.638,1.632,3.638,3.638V165.908z"/>
		</g>
		<g>
			<path fill="#6E6E6E" d="M177.057,108.91c0-2.006-1.632-3.638-3.638-3.638h-41.232c-2.006,0-3.638,1.632-3.638,3.638v52.147
				l48.509-48.509V108.91z"/>
			<path fill="#7D7D7D" d="M128.548,161.057v4.851c0,2.006,1.632,3.638,3.638,3.638h41.232c2.006,0,3.638-1.632,3.638-3.638v-53.36
				L128.548,161.057z"/>
		</g>
		<path fill="#333333" d="M132.186,167.121c-0.657,0-1.213-0.555-1.213-1.213V108.91c0-0.657,0.555-1.213,1.213-1.213h41.232
			c0.657,0,1.213,0.555,1.213,1.213v56.998c0,0.657-0.555,1.213-1.213,1.213H132.186z"/>
		<polygon fill="#595959" points="130.974,158.632 174.631,114.974 174.631,119.825 130.974,163.483 		"/>
		<polygon fill="#595959" points="137.037,167.121 174.631,129.526 174.631,136.803 144.313,167.121 		"/>
		<polygon fill="#595959" points="147.952,167.121 174.631,140.441 174.631,142.866 150.377,167.121 		"/>
		<circle fill="#595959" cx="92.773" cy="236.852" r="10.914"/>
		<rect x="75.189" y="230.182" fill="#595959" width="7.276" height="2.425"/>
		<rect x="75.189" y="198.651" fill="#595959" width="7.276" height="2.425"/>
		<g>
			<path fill="#B3B3B3" d="M88.528,221.693c-6.028,0-10.914,4.887-10.914,10.914c0,3.014,1.222,5.743,3.197,7.718l15.435-15.435
				C94.271,222.915,91.542,221.693,88.528,221.693z"/>
			<path fill="#7D7D7D" d="M80.811,240.325c1.975,1.975,4.704,3.197,7.718,3.197c6.028,0,10.914-4.887,10.914-10.914
				c0-3.014-1.222-5.743-3.197-7.718L80.811,240.325z"/>
		</g>
		<g>
			<path fill="#FFC639" d="M84.284,235.639c0-4.019,3.258-7.276,7.276-7.276c2.036,0,3.875,0.839,5.196,2.187
				c-0.921-3.692-4.25-6.431-8.227-6.431c-4.688,0-8.489,3.801-8.489,8.489c0,3.977,2.739,7.306,6.431,8.227
				C85.123,239.514,84.284,237.676,84.284,235.639z"/>
			<path fill="#F1A530" d="M97.017,232.608c0-0.711-0.097-1.398-0.262-2.058c-1.321-1.348-3.159-2.187-5.196-2.187
				c-4.019,0-7.276,3.258-7.276,7.276c0,2.036,0.839,3.875,2.187,5.196c0.66,0.165,1.347,0.262,2.058,0.262
				C93.217,241.097,97.017,237.296,97.017,232.608z"/>
		</g>
		<circle fill="#595959" cx="90.954" cy="203.502" r="8.489"/>
		<g>
			<path fill="#B3B3B3" d="M88.528,192.588c-4.688,0-8.489,3.801-8.489,8.489c0,2.344,0.95,4.466,2.486,6.003l12.005-12.005
				C92.995,193.538,90.873,192.588,88.528,192.588z"/>
			<path fill="#7D7D7D" d="M82.526,207.079c1.536,1.536,3.659,2.486,6.003,2.486c4.688,0,8.489-3.801,8.489-8.489
				c0-2.344-0.95-4.466-2.486-6.003L82.526,207.079z"/>
		</g>
		<g>
			<path fill="#6E6E6E" d="M85.497,203.242c0-2.87,2.327-5.197,5.197-5.197c1.454,0,2.768,0.599,3.711,1.562
				c-0.658-2.637-3.036-4.594-5.877-4.594c-3.349,0-6.064,2.715-6.064,6.064c0,2.841,1.957,5.219,4.594,5.877
				C86.096,206.01,85.497,204.697,85.497,203.242z"/>
			<path fill="#595959" d="M94.592,201.077c0-0.508-0.069-0.998-0.187-1.47c-0.943-0.963-2.257-1.562-3.711-1.562
				c-2.87,0-5.197,2.327-5.197,5.197c0,1.454,0.599,2.768,1.562,3.711c0.471,0.118,0.962,0.187,1.47,0.187
				C91.877,207.14,94.592,204.426,94.592,201.077z"/>
		</g>
		<g>
			<path fill="#9C9C9C" d="M200.099,169.546v1.213c0,4.002,3.274,7.276,7.276,7.276h55.785c4.002,0,7.276-3.274,7.276-7.276v-71.55
				L200.099,169.546z"/>
		</g>
		<g>
			<path fill="#9C9C9C" d="M33.956,169.546v1.213c0,4.002,3.274,7.276,7.276,7.276h55.785c4.002,0,7.276-3.274,7.276-7.276v-71.55
				L33.956,169.546z"/>
		</g>
		<g>
			<path fill="#595959" d="M100.656,89.507H38.807c-3.335,0-6.064,2.729-6.064,6.064v77.614c0,3.335,2.729,6.064,6.064,6.064h61.849
				c3.335,0,6.064-2.729,6.064-6.064V95.57C106.719,92.235,103.991,89.507,100.656,89.507z M104.294,173.184
				c0,2.006-1.632,3.638-3.638,3.638H38.807c-2.006,0-3.638-1.632-3.638-3.638V95.57c0-2.006,1.632-3.638,3.638-3.638h61.849
				c2.006,0,3.638,1.632,3.638,3.638V173.184z"/>
			<g>
				<path fill="#333333" d="M100.656,94.358H38.807c-0.657,0-1.213,0.555-1.213,1.213v77.614c0,0.657,0.555,1.213,1.213,1.213
					h61.849c0.657,0,1.213-0.555,1.213-1.213V95.57C101.868,94.913,101.313,94.358,100.656,94.358z"/>
			</g>
		</g>
		<path fill="#595959" d="M265.585,89.507h-60.636c-3.335,0-6.064,2.729-6.064,6.064v77.614c0,3.335,2.729,6.064,6.064,6.064h60.636
			c3.335,0,6.064-2.729,6.064-6.064V95.57C271.649,92.235,268.92,89.507,265.585,89.507z M269.223,173.184
			c0,2.006-1.632,3.638-3.638,3.638h-60.636c-2.006,0-3.638-1.632-3.638-3.638V95.57c0-2.006,1.632-3.638,3.638-3.638h60.636
			c2.006,0,3.638,1.632,3.638,3.638V173.184z"/>
		<g>
			<path fill="none" d="M265.585,94.358h-60.636c-0.657,0-1.213,0.555-1.213,1.213l3.638,66.7l55.785-55.785l3.638-10.914
				C266.798,94.913,266.243,94.358,265.585,94.358z"/>
			<path fill="none" d="M203.737,173.184c0,0.657,0.555,1.213,1.213,1.213h60.636c0.657,0,1.213-0.555,1.213-1.213l-3.638-66.7
				l-55.785,55.785L203.737,173.184z"/>
		</g>
		<g>
			<path fill="#B3B3B3" d="M180.695,21.595c3.842,0,7.639,0.142,11.384,0.412c-12.516-2.633-25.68-4.051-39.276-4.051
				c-51.565,0-97.012,20.212-123.802,50.934c-0.79,0.906-2.321,3.638-2.321,7.276c0,1.213,0,1.213,0,1.213h45.758
				C88.559,44.832,130.944,21.595,180.695,21.595z"/>
			<path fill="#9C9C9C" d="M278.925,76.167c0-3.638-1.532-6.371-2.322-7.278c-19.726-22.621-49.574-39.531-84.524-46.882
				c-3.745-0.271-7.542-0.412-11.384-0.412c-49.751,0-92.136,23.237-108.257,55.785h206.487
				C278.925,77.38,278.925,77.379,278.925,76.167z"/>
		</g>
		<path fill="#424242" d="M36.382,188.95c-3.349,0-6.064-2.715-6.064-6.064v6.064v3.638v6.064c0-3.349,2.715-6.064,6.064-6.064
			h38.807v-3.638H36.382z"/>
		<path fill="#424242" d="M36.382,241.097c-3.349,0-6.064-2.715-6.064-6.064v6.064v3.638v6.064c0-3.349,2.715-6.064,6.064-6.064
			h38.807v-3.638H36.382z"/>
		<g>
			<path fill="#545454" d="M23.042,173.184v2.425v81.252v2.425c0,2.009,1.629,3.638,3.638,3.638v-93.379
				C24.67,169.546,23.042,171.175,23.042,173.184z"/>
			<path fill="#424242" d="M26.68,169.546v93.379c2.009,0,3.638-1.629,3.638-3.638v-2.425V175.61v-2.425
				C30.318,171.175,28.689,169.546,26.68,169.546z"/>
		</g>
		<g>
			<path fill="#545454" d="M71.55,185.918v61.849c0,1.005,0.814,1.819,1.819,1.819v-65.487
				C72.365,184.099,71.55,184.913,71.55,185.918z"/>
			<path fill="#424242" d="M73.369,184.099v65.487c1.005,0,1.819-0.814,1.819-1.819v-61.849
				C75.189,184.913,74.374,184.099,73.369,184.099z"/>
		</g>
		<g>
			<g>
				<path fill="#333333" d="M253.338,146.625l13.46-13.46v-3.638l-10.422,10.422C255.741,142.363,254.703,144.614,253.338,146.625z"
					/>
			</g>
			<g>
				<path fill="#333333" d="M265.585,174.397c0.657,0,1.213-0.555,1.213-1.213V135.59l-38.807,38.807H265.585z"/>
			</g>
			<g>
				<path fill="#333333" d="M240.838,155.486l-18.911,18.911h3.638l21.949-21.949C245.504,153.813,243.253,154.851,240.838,155.486z
					"/>
			</g>
			<g>
				<path fill="#333333" d="M265.585,94.358h-60.636c-0.657,0-1.213,0.555-1.213,1.213v70.338l16.095-16.095
					c-3.95-3.95-6.394-9.408-6.394-15.435c0-12.056,9.773-21.829,21.829-21.829c6.028,0,11.485,2.443,15.435,6.394l16.095-16.095
					V95.57C266.798,94.913,266.243,94.358,265.585,94.358z"/>
			</g>
			<g>
				<path fill="#333333" d="M256.974,132.074l9.824-9.824v-14.553l-13.864,13.864C255.125,124.576,256.565,128.171,256.974,132.074z
					"/>
			</g>
			<g>
				<path fill="#333333" d="M222.452,152.044l-18.715,18.715v2.425c0,0.657,0.555,1.213,1.213,1.213h9.702l18.313-18.313
					C229.061,155.675,225.466,154.235,222.452,152.044z"/>
			</g>
			<path fill="#E83F5C" d="M233.024,130.012h-7.289v-4.431c1.021,0.028,2.009-0.048,2.961-0.228
				c0.953-0.179,1.808-0.497,2.568-0.953c0.759-0.455,1.401-1.056,1.926-1.801c0.524-0.745,0.87-1.67,1.035-2.775h4.68v10.914
				l11.797-11.797c-3.95-3.95-9.407-6.394-15.435-6.394c-12.056,0-21.829,9.773-21.829,21.829c0,6.028,2.443,11.485,6.394,15.435
				l13.192-13.192V130.012z"/>
			<path fill="#E83F5C" d="M247.515,152.448l5.823-5.823c1.366-2.011,2.403-4.262,3.038-6.677l-15.538,15.538
				C243.253,154.851,245.504,153.813,247.515,152.448z"/>
			<path fill="#E83F5C" d="M238.905,148.814h-5.881v-7.343l-10.573,10.573c3.015,2.191,6.609,3.631,10.512,4.041l24.011-24.011
				c-0.409-3.903-1.85-7.497-4.041-10.512l-14.028,14.028V148.814z"/>
			<polygon fill="#E6E6E6" points="238.905,148.814 238.905,135.59 233.024,141.471 233.024,148.814 			"/>
			<path fill="#E6E6E6" d="M238.905,119.825h-4.68c-0.165,1.104-0.511,2.029-1.035,2.775c-0.525,0.746-1.166,1.346-1.926,1.801
				c-0.76,0.456-1.615,0.773-2.568,0.953c-0.953,0.18-1.94,0.256-2.961,0.228v4.431h7.289v6.608l5.881-5.881V119.825z"/>
			<path fill="#595959" d="M252.934,121.562l13.864-13.864v-4.851l-16.095,16.095C251.514,119.753,252.258,120.631,252.934,121.562z
				"/>
			<path fill="#595959" d="M219.832,149.813l-16.095,16.095v4.851l18.715-18.715C221.521,151.368,220.643,150.624,219.832,149.813z"
				/>
			<path fill="#EF768B" d="M238.905,135.59l14.028-14.028c-0.676-0.93-1.42-1.808-2.231-2.62l-11.797,11.797V135.59z"/>
			<path fill="#EF768B" d="M233.024,141.471v-4.851l-13.192,13.192c0.811,0.811,1.689,1.555,2.62,2.231L233.024,141.471z"/>
			<polygon fill="#F2F2F2" points="238.905,130.739 233.024,136.62 233.024,141.471 238.905,135.59 			"/>
			<path fill="#595959" d="M257.096,134.377c0,1.926-0.252,3.792-0.72,5.571l10.422-10.422v-7.276l-9.824,9.824
				C257.054,132.831,257.096,133.599,257.096,134.377z"/>
			<path fill="#595959" d="M235.267,156.206c-0.778,0-1.546-0.042-2.304-0.122l-18.313,18.313h7.276l18.911-18.911
				C239.059,155.954,237.193,156.206,235.267,156.206z"/>
			<path fill="#EF768B" d="M235.267,156.206c1.926,0,3.792-0.252,5.571-0.72l15.538-15.538c0.468-1.779,0.72-3.645,0.72-5.571
				c0-0.778-0.042-1.546-0.122-2.304l-24.011,24.011C233.721,156.164,234.489,156.206,235.267,156.206z"/>
			<path fill="#595959" d="M247.515,152.448l-21.949,21.949h2.425l38.807-38.807v-2.425l-13.46,13.46
				C251.783,148.915,249.805,150.893,247.515,152.448z"/>
			<path fill="#EF768B" d="M253.338,146.625l-5.823,5.823C249.805,150.893,251.783,148.915,253.338,146.625z"/>
		</g>
		<rect x="192.822" y="232.608" fill="#595959" width="86.103" height="2.425"/>
		<rect x="192.822" y="230.182" fill="#B3B3B3" width="86.103" height="2.425"/>
		<rect x="192.822" y="201.077" fill="#595959" width="86.103" height="2.425"/>
		<rect x="192.822" y="198.651" fill="#B3B3B3" width="86.103" height="2.425"/>
		<circle fill="#595959" cx="220.108" cy="236.852" r="10.914"/>
		<g>
			<path fill="#B3B3B3" d="M215.864,221.693c-6.028,0-10.914,4.887-10.914,10.914c0,3.014,1.222,5.743,3.197,7.718l15.435-15.435
				C221.606,222.915,218.878,221.693,215.864,221.693z"/>
			<path fill="#7D7D7D" d="M208.146,240.325c1.975,1.975,4.704,3.197,7.718,3.197c6.028,0,10.914-4.887,10.914-10.914
				c0-3.014-1.222-5.743-3.197-7.718L208.146,240.325z"/>
		</g>
		<g>
			<path fill="#FFC639" d="M211.619,235.639c0-4.019,3.258-7.276,7.276-7.276c2.036,0,3.875,0.839,5.195,2.187
				c-0.921-3.692-4.25-6.431-8.227-6.431c-4.688,0-8.489,3.801-8.489,8.489c0,3.977,2.739,7.306,6.431,8.227
				C212.458,239.514,211.619,237.676,211.619,235.639z"/>
			<path fill="#F1A530" d="M224.353,232.608c0-0.711-0.097-1.398-0.262-2.058c-1.321-1.348-3.159-2.187-5.195-2.187
				c-4.019,0-7.276,3.258-7.276,7.276c0,2.036,0.839,3.875,2.187,5.196c0.66,0.165,1.347,0.262,2.058,0.262
				C220.552,241.097,224.353,237.296,224.353,232.608z"/>
		</g>
		<circle fill="#595959" cx="219.502" cy="203.502" r="8.489"/>
		<g>
			<path fill="#B3B3B3" d="M217.077,192.588c-4.688,0-8.489,3.801-8.489,8.489c0,2.344,0.95,4.466,2.486,6.003l12.005-12.005
				C221.543,193.538,219.421,192.588,217.077,192.588z"/>
			<path fill="#7D7D7D" d="M211.074,207.079c1.536,1.536,3.659,2.486,6.003,2.486c4.688,0,8.489-3.801,8.489-8.489
				c0-2.344-0.95-4.466-2.486-6.003L211.074,207.079z"/>
		</g>
		<g>
			<path fill="#6E6E6E" d="M214.045,203.242c0-2.87,2.327-5.197,5.197-5.197c1.454,0,2.768,0.599,3.711,1.562
				c-0.658-2.637-3.036-4.594-5.877-4.594c-3.349,0-6.064,2.715-6.064,6.064c0,2.841,1.957,5.219,4.594,5.877
				C214.644,206.01,214.045,204.697,214.045,203.242z"/>
			<path fill="#595959" d="M223.14,201.077c0-0.508-0.069-0.998-0.187-1.47c-0.943-0.963-2.257-1.562-3.711-1.562
				c-2.87,0-5.197,2.327-5.197,5.197c0,1.454,0.599,2.768,1.562,3.711c0.471,0.118,0.962,0.187,1.47,0.187
				C220.425,207.14,223.14,204.426,223.14,201.077z"/>
		</g>
		<path fill="#424242" d="M269.223,188.95c3.349,0,6.064-2.715,6.064-6.064v6.064v3.638v6.064c0-3.349-2.715-6.064-6.064-6.064
			h-38.807v-3.638H269.223z"/>
		<path fill="#424242" d="M269.223,241.097c3.349,0,6.064-2.715,6.064-6.064v6.064v3.638v6.064c0-3.349-2.715-6.064-6.064-6.064
			h-38.807v-3.638H269.223z"/>
		<g>
			<path fill="#545454" d="M275.287,173.184v2.425v81.252v2.425c0,2.009,1.629,3.638,3.638,3.638v-93.379
				C276.916,169.546,275.287,171.175,275.287,173.184z"/>
			<path fill="#424242" d="M278.925,169.546v93.379c2.009,0,3.638-1.629,3.638-3.638v-2.425V175.61v-2.425
				C282.563,171.175,280.935,169.546,278.925,169.546z"/>
		</g>
		<g>
			<path fill="#545454" d="M230.416,185.918v61.849c0,1.005,0.814,1.819,1.819,1.819v-65.487
				C231.231,184.099,230.416,184.913,230.416,185.918z"/>
			<path fill="#424242" d="M232.236,184.099v65.487c1.005,0,1.819-0.814,1.819-1.819v-61.849
				C234.055,184.913,233.24,184.099,232.236,184.099z"/>
		</g>
		<path fill="#A4C639" d="M9.823,142.866c-4.698,0-8.621,3.301-9.589,7.708C0.085,151.257,0,151.963,0,152.689
			c0,0.012,0,11.265,0,21.897c0,9.52,0,18.544,0,18.555c0,0.727,0.085,1.433,0.234,2.115c0.352,1.602,1.098,3.054,2.125,4.258
			c1.8,2.11,4.473,3.451,7.464,3.451c4.698,0,8.621-3.301,9.589-7.708c0.15-0.682,0.234-1.388,0.234-2.115c0-0.008,0-4.715,0-10.914
			c0-2.387,0-4.994,0-7.64c0-10.632,0-21.885,0-21.897c0-0.727-0.085-1.433-0.234-2.115
			C18.444,146.167,14.521,142.866,9.823,142.866z"/>
		<rect x="26.68" y="77.38" fill="#B3B3B3" width="252.245" height="2.425"/>
		<g>
			<path fill="#A4C639" d="M42.286,87.607c0,0-0.434-0.677-1.126-0.281c-0.693,0.394-0.346,1.106-0.346,1.106l5.882,10.227
				c0.303-0.615,0.614-1.222,0.934-1.82L42.286,87.607z"/>
			<path fill="#7F9B2E" d="M40.02,128.314c0-8.682,1.553-16.901,4.322-24.228c-1.067,0.673-2.111,1.375-3.109,2.126
				c-0.611,0.459-1.213,0.928-1.796,1.415c-0.633,0.529-1.243,1.079-1.842,1.64v28.074h2.997
				C40.217,134.402,40.02,131.387,40.02,128.314z"/>
			<path fill="#7F9B2E" d="M41.498,142.745h-0.265h-3.638v30.164c0,0.807,0.555,1.488,1.213,1.488h20.278
				C50.578,166.969,44.228,155.805,41.498,142.745z"/>
			<path fill="#A4C639" d="M94.031,103.453c-1.018-0.602-2.057-1.178-3.131-1.705l1.094-1.902l6.566-11.415
				c0,0,0.366-0.707-0.323-1.104c-0.689-0.397-1.15,0.28-1.15,0.28l-6.653,11.492l-1.126,1.944
				c-5.924-2.637-12.58-4.126-19.622-4.126c-7.042,0-13.702,1.489-19.623,4.126l-1.126-1.944l-1.309-2.261
				c-0.32,0.598-0.632,1.205-0.934,1.82l0.684,1.188l1.094,1.902c-1.074,0.527-2.113,1.102-3.131,1.705
				c-0.341,0.202-0.668,0.422-1.002,0.633c-2.769,7.327-4.322,15.546-4.322,24.228c0,3.074,0.198,6.088,0.572,9.027h0.641h28.455
				h32.18v-27.992c-0.425-0.4-0.856-0.795-1.298-1.179C98.559,106.422,96.373,104.839,94.031,103.453z M48.474,122.653
				c-2.337,0-4.243-1.845-4.243-4.184c0-2.337,1.906-4.242,4.243-4.242c2.337,0,4.243,1.906,4.243,4.242
				C52.717,120.808,50.811,122.653,48.474,122.653z M90.9,122.653c-2.336,0-4.242-1.845-4.242-4.184
				c0-2.337,1.906-4.242,4.242-4.242c2.34,0,4.244,1.906,4.244,4.242C95.144,120.808,93.24,122.653,90.9,122.653z"/>
			<path fill="#A4C639" d="M59.085,174.397h41.571c0.657,0,1.213-0.682,1.213-1.488v-30.164h-60.37
				C44.228,155.805,50.578,166.969,59.085,174.397z"/>
		</g>
	</g>
</g>
<g id="Layer_6">
</g>
</svg>
